<svg width="64" height="64" viewBox="0 0 64 64" fill="none" xmlns="http://www.w3.org/2000/svg">
<path d="M32.0003 0C14.3293 0 0 14.6888 0 32.8099C0 47.3064 9.16905 59.6051 21.8837 63.9436C23.483 64.2473 24.0701 63.2318 24.0701 62.3652C24.0701 61.5829 24.0405 58.9982 24.0267 56.2566C15.1242 58.2414 13.2457 52.3854 13.2457 52.3854C11.79 48.593 9.6926 47.5846 9.6926 47.5846C6.78922 45.5482 9.91146 45.59 9.91146 45.59C13.1248 45.8209 14.8168 48.9711 14.8168 48.9711C17.6709 53.9871 22.3029 52.537 24.129 51.6986C24.4162 49.5786 25.2455 48.1301 26.1606 47.3113C19.0529 46.4816 11.5812 43.6683 11.5812 31.0962C11.5812 27.5141 12.8313 24.5872 14.8783 22.2894C14.5461 21.4625 13.4507 18.1259 15.1883 13.6065C15.1883 13.6065 17.8755 12.7247 23.9907 16.9697C26.5432 16.2428 29.2808 15.8782 32.0003 15.8657C34.7198 15.8782 37.4594 16.2428 40.0168 16.9697C46.1245 12.7247 48.808 13.6065 48.808 13.6065C50.5498 18.1259 49.4539 21.4625 49.1217 22.2894C51.1735 24.5872 52.4151 27.5141 52.4151 31.0962C52.4151 43.6982 44.929 46.4729 37.8033 47.2852C38.9511 48.3034 39.9738 50.3001 39.9738 53.3612C39.9738 57.7508 39.9367 61.284 39.9367 62.3652C39.9367 63.2384 40.5128 64.2615 42.1348 63.9393C54.8426 59.5959 64 47.3015 64 32.8099C64 14.6888 49.6728 0 32.0003 0" fill="#DCD7D8"/>
<path d="M12.1197 47.108C12.0492 47.2716 11.7991 47.3199 11.5712 47.208C11.3391 47.1009 11.2088 46.8787 11.284 46.7152C11.3529 46.5473 11.6036 46.5011 11.8351 46.6125C12.0678 46.7201 12.2003 46.9445 12.1197 47.108" fill="#DCD7D8"/>
<path d="M13.4165 48.5902C13.2639 48.7353 12.9656 48.6679 12.7631 48.4386C12.5538 48.2099 12.5146 47.904 12.6694 47.7567C12.8267 47.6117 13.1161 47.6796 13.3259 47.9083C13.5352 48.1398 13.576 48.4435 13.4165 48.5902" fill="#DCD7D8"/>
<path d="M14.6778 50.48C14.4817 50.6196 14.1611 50.4887 13.9629 50.1969C13.7669 49.9051 13.7669 49.5552 13.9672 49.4151C14.1659 49.2749 14.4817 49.4009 14.6825 49.6905C14.8781 49.9866 14.8781 50.3371 14.6778 50.48" fill="#DCD7D8"/>
<path d="M16.4065 52.3056C16.2311 52.5039 15.8575 52.4506 15.5841 52.18C15.3043 51.9154 15.2264 51.54 15.4023 51.3417C15.5799 51.1428 15.9556 51.1988 16.2311 51.4672C16.5088 51.7313 16.5936 52.1094 16.4065 52.3056" fill="#DCD7D8"/>
<path d="M18.7907 53.3656C18.7133 53.6225 18.3535 53.7394 17.9911 53.6302C17.6291 53.5177 17.3923 53.2167 17.4654 52.957C17.5407 52.6983 17.9021 52.5766 18.2672 52.6935C18.6286 52.8054 18.866 53.1042 18.7907 53.3656" fill="#DCD7D8"/>
<path d="M21.4093 53.5622C21.4183 53.8328 21.111 54.0572 20.7305 54.0616C20.3479 54.0708 20.0384 53.8518 20.0342 53.5856C20.0342 53.3123 20.3346 53.0901 20.7172 53.0836C21.0977 53.076 21.4093 53.2933 21.4093 53.5622" fill="#DCD7D8"/>
<path d="M23.8468 53.1369C23.8924 53.4009 23.6279 53.672 23.2501 53.7438C22.8786 53.8139 22.5347 53.6509 22.4876 53.389C22.4415 53.1184 22.7107 52.8473 23.0816 52.7772C23.46 52.7098 23.7986 52.8685 23.8468 53.1369" fill="#DCD7D8"/>
</svg>
