<svg width="227" height="188" viewBox="0 0 227 188" fill="none" xmlns="http://www.w3.org/2000/svg">
<path d="M89.5025 137.717C85.6561 133.891 82.6069 129.341 80.5317 124.329C78.4564 119.318 77.3962 113.944 77.4126 108.519L77.4082 94.4657C77.394 93.65 77.5425 92.8397 77.8448 92.082C78.1471 91.3243 78.5973 90.6345 79.1691 90.0526C79.7409 89.4708 80.4229 89.0087 81.1752 88.6932C81.9275 88.3778 82.7351 88.2153 83.5509 88.2153C84.3667 88.2153 85.1743 88.3778 85.9266 88.6932C86.6789 89.0087 87.3609 89.4708 87.9327 90.0526C88.5045 90.6345 88.9547 91.3243 89.2571 92.082C89.5594 92.8397 89.7078 93.65 89.6936 94.4657L89.698 108.519C89.6974 112.328 90.4472 116.099 91.9045 119.618C93.3618 123.137 95.4981 126.335 98.1913 129.028C100.884 131.721 104.082 133.857 107.601 135.314C111.12 136.772 114.891 137.522 118.7 137.521L160.86 137.517C164.669 137.517 168.44 136.768 171.958 135.311C175.477 133.854 178.674 131.718 181.366 129.025C184.059 126.332 186.195 123.135 187.652 119.617C189.109 116.098 189.859 112.327 189.858 108.519L189.858 94.47C189.859 90.6618 189.109 86.8907 187.652 83.3723C186.195 79.8538 184.059 76.6568 181.366 73.964C178.674 71.2712 175.477 69.1352 171.958 67.6783C168.44 66.2213 164.669 65.4717 160.86 65.4725L137.753 65.4725C136.143 65.4445 134.607 64.785 133.478 63.6361C132.349 62.4871 131.716 60.9407 131.716 59.3298C131.716 57.7189 132.349 56.1724 133.478 55.0235C134.607 53.8746 136.143 53.2151 137.753 53.1871L160.865 53.1914C166.286 53.1901 171.655 54.257 176.665 56.3312C181.674 58.4054 186.225 61.4462 190.059 65.28C193.893 69.1137 196.934 73.6652 199.008 78.6745C201.082 83.6838 202.149 89.0527 202.148 94.4744L202.148 108.524C202.149 113.945 201.082 119.314 199.008 124.323C196.934 129.333 193.893 133.884 190.059 137.718C186.225 141.552 181.674 144.592 176.664 146.667C171.655 148.741 166.286 149.808 160.865 149.806L118.704 149.811C113.279 149.828 107.905 148.768 102.893 146.694C97.88 144.619 93.3288 141.571 89.5025 137.725L89.5025 137.717Z" fill="#E8E5E5"/>
<path d="M36.222 122.717C32.3759 118.891 29.3269 114.341 27.2517 109.329C25.1764 104.317 24.1161 98.9437 24.1321 93.5193L24.1277 79.4658C24.1283 68.517 28.478 58.0169 36.2199 50.275C43.9618 42.5331 54.4619 38.1834 65.4107 38.1828L107.58 38.1872C113.001 38.1867 118.37 39.2541 123.379 41.3286C128.388 43.4031 132.939 46.444 136.772 50.2775C140.606 54.1111 143.647 58.6623 145.721 63.6712C147.796 68.6801 148.863 74.0486 148.863 79.4701L148.863 93.5193C148.835 95.1299 148.175 96.6651 147.026 97.7943C145.877 98.9234 144.331 99.5561 142.72 99.5561C141.109 99.5561 139.563 98.9234 138.414 97.7943C137.265 96.6651 136.605 95.1299 136.577 93.5193L136.577 79.4701C136.577 71.7795 133.522 64.404 128.084 58.9659C122.646 53.5278 115.27 50.4727 107.58 50.4726L65.4107 50.4682C57.7201 50.4683 50.3445 53.5235 44.9064 58.9615C39.4684 64.3996 36.4132 71.7752 36.4131 79.4658L36.4175 93.5193C36.4176 101.21 39.4727 108.585 44.9108 114.024C50.3488 119.462 57.7244 122.517 65.415 122.517L89.5263 122.521C91.137 122.549 92.6722 123.209 93.8014 124.358C94.9305 125.506 95.5632 127.053 95.5632 128.664C95.5632 130.275 94.9305 131.821 93.8014 132.97C92.6722 134.119 91.137 134.779 89.5263 134.807L65.4237 134.802C59.9988 134.82 54.6243 133.76 49.6117 131.686C44.599 129.611 40.0479 126.563 36.222 122.717Z" fill="#E8E5E5"/>
<path d="M107.416 88.5H83.992C80.9589 88.5 78.5 90.9589 78.5 93.992C78.5 97.0252 80.9589 99.484 83.992 99.484H142.232C145.265 99.484 147.724 97.0252 147.724 93.992C147.724 90.9589 145.265 88.5 142.232 88.5H118.68H107.416Z" fill="#E8E5E5" stroke="#E8E5E5"/>
</svg>
