<svg width="581" height="92" viewBox="0 0 581 92" fill="none" xmlns="http://www.w3.org/2000/svg">
<path d="M563.515 25.856C574.864 25.856 580.539 31.5733 580.539 43.0079V85.856C580.539 88.0651 578.748 89.856 576.539 89.856H572.123C569.914 89.856 568.123 88.0651 568.123 85.856V46.5919C568.123 42.6666 567.483 39.9786 566.203 38.528C564.923 36.992 562.747 36.224 559.675 36.224C556.006 36.224 552.336 37.12 548.667 38.912C546.062 40.1236 537.495 44.6994 533.46 47.2519C531.978 48.1899 531.853 47.8566 532.371 46.1802L534.61 38.9304C534.845 38.1676 535.302 37.4903 535.932 36.9999C540.39 33.5293 544.849 30.8387 549.307 28.928C554.086 26.88 558.822 25.856 563.515 25.856ZM531.08 27.392C533.141 27.392 534.865 28.9586 535.061 31.0107L535.796 38.6825C535.843 39.1726 535.98 39.6498 536.2 40.0901L536.341 40.3714C536.618 40.9268 536.763 41.5392 536.763 42.1602V85.856C536.763 88.0651 534.972 89.856 532.763 89.856H528.475C526.266 89.856 524.475 88.0651 524.475 85.856V31.392C524.475 29.1828 526.266 27.392 528.475 27.392H531.08Z" fill="#E8E5E5"/>
<path d="M500.772 27.3919C502.981 27.3919 504.772 29.1828 504.772 31.3919V85.8559C504.772 88.065 502.981 89.8559 500.772 89.8559H496.612C494.403 89.8559 492.612 88.065 492.612 85.8559V31.3919C492.612 29.1828 494.403 27.3919 496.612 27.3919H500.772ZM501.572 0.639893C504.047 0.639893 505.284 1.87723 505.284 4.35189V11.6479C505.284 14.1226 504.047 15.3599 501.572 15.3599H495.812C493.337 15.3599 492.1 14.1226 492.1 11.6479V4.35189C492.1 1.87723 493.337 0.639893 495.812 0.639893H501.572Z" fill="#E8E5E5"/>
<path d="M451.43 25.856C456.209 25.856 460.219 26.496 463.462 27.776C466.79 28.9706 469.265 31.0613 470.886 34.048C472.593 37.0346 473.446 41.1306 473.446 46.336V85.856C473.446 88.0651 471.655 89.856 469.446 89.856H467.192C465.199 89.856 463.511 88.3894 463.231 86.4164L461.889 76.9334C461.829 76.5059 461.7 76.0911 461.507 75.7049L461.452 75.5965C461.175 75.0411 461.03 74.4287 461.03 73.8077V46.336C461.03 42.6666 460.177 40.0213 458.47 38.4C456.763 36.7786 453.521 35.968 448.742 35.968C445.499 35.968 441.403 36.1386 436.454 36.4799C432.864 36.7319 429.297 36.9838 425.753 37.2358C423.64 37.386 421.776 35.8633 421.502 33.7626L421.333 32.4639C421.056 30.3426 422.497 28.3755 424.612 28.0555C426.452 27.7771 428.394 27.5132 430.438 27.264C434.022 26.8373 437.649 26.496 441.318 26.24C444.987 25.984 448.358 25.856 451.43 25.856ZM463.755 51.328C465.987 51.328 467.787 53.1549 467.754 55.3868L467.744 56.1079C467.712 58.2871 465.941 60.0395 463.762 60.049L438.246 60.16C435.345 60.2453 433.297 61.0133 432.102 62.464C430.993 63.8293 430.438 65.7493 430.438 68.224V72.064C430.438 75.136 431.163 77.3973 432.614 78.848C434.15 80.2133 436.539 80.896 439.782 80.896C442.171 80.896 444.817 80.4693 447.718 79.616C450.705 78.6773 453.691 77.312 456.678 75.52C458.199 74.5641 460.199 72.7566 461.827 71.2124C463.431 69.6926 464.742 70.2708 464.742 72.48V75.2621C464.742 76.0958 464.489 76.9141 463.963 77.5611C463.171 78.5357 462.151 79.6473 460.902 80.896C459.195 82.5173 457.105 84.096 454.63 85.632C452.241 87.168 449.553 88.448 446.566 89.472C443.665 90.496 440.465 91.0079 436.966 91.0079C433.211 91.0079 429.883 90.368 426.982 89.088C424.166 87.7226 421.947 85.76 420.326 83.2C418.705 80.5546 417.894 77.3546 417.894 73.6V66.816C417.894 61.952 419.43 58.1546 422.502 55.424C425.659 52.6933 430.011 51.328 435.558 51.328H463.755Z" fill="#E8E5E5"/>
<path d="M385.515 25.8559C396.864 25.8559 402.539 31.5732 402.539 43.0079V85.8559C402.539 88.065 400.748 89.8559 398.539 89.8559H393.995C391.786 89.8559 389.995 88.065 389.995 85.8559V46.5919C389.995 42.6665 389.355 39.9785 388.075 38.5279C386.88 36.9919 384.747 36.2239 381.675 36.2239C378.006 36.2239 374.336 37.0772 370.667 38.7839C366.998 40.4052 351.866 46.9999 350.5 49.4999L356.449 38.6084C356.709 38.133 357.062 37.7141 357.491 37.3835C362.054 33.8686 366.616 31.0927 371.179 29.0559C376.043 26.9225 380.822 25.8559 385.515 25.8559ZM354.784 0.255859C356.985 0.255859 358.772 2.03385 358.784 4.2347L358.891 24.4479C358.891 27.3492 358.763 30.0799 358.507 32.6399C358.359 34.8589 358.852 36.9107 358.653 38.6961C358.593 39.2323 358.548 39.775 358.628 40.3086L358.719 40.9224C358.748 41.1178 358.763 41.3151 358.763 41.5126V85.8559C358.763 88.065 356.972 89.8559 354.763 89.8559H350.475C348.266 89.8559 346.475 88.065 346.475 85.8559V4.25586C346.475 2.04672 348.266 0.255859 350.475 0.255859H354.784Z" fill="#E8E5E5"/>
<path d="M306.124 0C309.964 0 313.249 0.0853322 315.98 0.255997C318.711 0.426666 321.228 0.725334 323.532 1.152C324.769 1.33518 326.03 1.56751 327.315 1.84898C329.268 2.27645 330.503 4.16404 330.239 6.14514L329.932 8.45137C329.646 10.5904 327.716 12.1089 325.564 11.9578C324.42 11.8775 323.317 11.8169 322.252 11.776C320.033 11.6053 317.644 11.4773 315.084 11.392C312.609 11.3067 309.623 11.264 306.124 11.264C300.663 11.264 296.353 12.3307 293.196 14.464C290.039 16.5973 287.777 20.1813 286.412 25.216C285.132 30.1653 284.492 36.992 284.492 45.696C284.492 54.4 285.132 61.2693 286.412 66.304C287.777 71.2533 290.039 74.7947 293.196 76.928C296.353 79.0613 300.663 80.128 306.124 80.128C311.671 80.128 316.321 80.0427 320.076 79.872C322.504 79.7101 324.881 79.497 327.207 79.2328C329.417 78.9817 331.452 80.5179 331.746 82.7221L332.039 84.9256C332.3 86.8794 331.101 88.7452 329.183 89.2013C326.468 89.8472 323.688 90.3214 320.844 90.624C316.919 91.136 312.012 91.392 306.124 91.392C297.591 91.392 290.721 89.9413 285.516 87.04C280.396 84.0533 276.684 79.232 274.38 72.576C272.076 65.92 270.924 56.96 270.924 45.696C270.924 34.432 272.076 25.472 274.38 18.816C276.684 12.16 280.396 7.38133 285.516 4.48C290.721 1.49333 297.591 0 306.124 0Z" fill="#E8E5E5"/>
<path d="M251.118 27.3919C254.519 27.3919 256.368 31.3663 254.178 33.9679L240.642 50.0479C240.045 50.9012 239.277 51.7972 238.338 52.7359C237.453 53.5406 236.719 54.1557 236.138 54.581C236.073 54.6284 236.034 54.7035 236.034 54.7839V54.7839C236.034 54.8642 236.073 54.9392 236.137 54.9876C236.719 55.4265 237.452 56.1693 238.338 57.2159C239.277 58.2399 240.045 59.2639 240.642 60.2879L257.244 83.5309C259.135 86.1784 257.243 89.8559 253.989 89.8559H249.554C248.224 89.8559 246.98 89.1944 246.237 88.0911L225.029 56.6176C224.04 55.15 224.133 53.207 225.257 51.8406L244.178 28.8501C244.938 27.9268 246.071 27.3919 247.266 27.3919H251.118ZM215.151 0.255859C217.355 0.255859 219.144 2.03879 219.151 4.24283L219.266 39.5519C219.266 42.2825 219.138 44.8425 218.882 47.2319C218.882 49.4999 218.882 52.141 218.882 54.6559C218.882 56.9999 219 59.4999 218.882 61.8239C219.053 64.2985 219.138 66.6452 219.138 68.8639V85.8559C219.138 88.065 217.347 89.8559 215.138 89.8559H210.85C208.641 89.8559 206.85 88.065 206.85 85.8559V4.25586C206.85 2.04672 208.641 0.255859 210.85 0.255859H215.151ZM225.506 50.3039C227.715 50.3039 229.506 52.0947 229.506 54.3039V55.0079C229.506 57.217 227.715 59.0079 225.506 59.0079H218.914C216.705 59.0079 214.914 57.217 214.914 55.0079V54.3039C214.914 52.0947 216.705 50.3039 218.914 50.3039H225.506Z" fill="#E8E5E5"/>
<path d="M162.726 25.8559C165.457 25.8559 168.401 25.9412 171.558 26.1119C174.715 26.2825 177.83 26.4959 180.902 26.7519C182.608 26.8902 184.228 27.0535 185.759 27.2417C187.856 27.4993 189.31 29.4124 189.093 31.5134L188.968 32.7329C188.751 34.8377 186.933 36.4081 184.818 36.3322C182.062 36.2333 179.306 36.1545 176.55 36.0959C172.625 35.9252 168.699 35.8399 164.774 35.8399C161.019 35.7545 158.075 35.8399 155.942 36.0959C153.809 36.3519 152.273 36.9919 151.334 38.0159C150.395 39.0399 149.926 40.7892 149.926 43.2639C149.926 46.2505 150.651 48.2132 152.102 49.1519C153.638 50.0905 155.899 50.9012 158.886 51.5839L176.678 55.6799C181.713 56.9599 185.425 58.8372 187.814 61.3119C190.203 63.7865 191.398 67.7119 191.398 73.0879C191.398 78.2079 190.417 82.0905 188.454 84.7359C186.577 87.2959 183.633 89.0025 179.622 89.8559C175.611 90.7945 170.534 91.2639 164.39 91.2639C162.086 91.2639 158.63 91.1785 154.022 91.0079C150.541 90.8765 146.781 90.5176 142.744 89.9312C140.659 89.6284 139.216 87.7154 139.435 85.6202L139.551 84.512C139.771 82.4084 141.59 80.8401 143.703 80.9232C144.556 80.9568 145.436 80.9903 146.342 81.0239C148.646 81.1092 151.078 81.1519 153.638 81.1519C156.283 81.1519 158.929 81.1519 161.574 81.1519C166.182 81.1519 169.766 80.9812 172.326 80.6399C174.971 80.2132 176.806 79.4452 177.83 78.3359C178.939 77.1412 179.494 75.3919 179.494 73.0879C179.494 70.2719 178.598 68.3945 176.806 67.4559C175.099 66.4319 172.753 65.5785 169.766 64.8959L152.23 60.7999C148.646 59.9465 145.787 58.7945 143.654 57.3439C141.606 55.8079 140.113 53.9306 139.174 51.7119C138.321 49.4079 137.894 46.5492 137.894 43.1359C137.894 38.3572 138.747 34.7305 140.454 32.2559C142.161 29.6959 144.806 27.9892 148.39 27.1359C152.059 26.1972 156.838 25.7705 162.726 25.8559Z" fill="#E8E5E5"/>
<path d="M100.68 25.856C105.459 25.856 109.469 26.496 112.712 27.776C116.04 28.9706 118.515 31.0613 120.136 34.048C121.843 37.0346 122.696 41.1306 122.696 46.336V85.856C122.696 88.0651 120.905 89.856 118.696 89.856H116.442C114.449 89.856 112.761 88.3894 112.481 86.4164L111.139 76.9334C111.079 76.5059 110.95 76.0911 110.757 75.7049L110.702 75.5965C110.425 75.0411 110.28 74.4287 110.28 73.8077V46.336C110.28 42.6666 109.427 40.0213 107.72 38.4C106.013 36.7786 102.771 35.968 97.9921 35.968C94.7494 35.968 90.6534 36.1386 85.704 36.4799C82.1139 36.7319 78.5471 36.9838 75.0035 37.2358C72.8903 37.386 71.026 35.8633 70.752 33.7627L70.5826 32.4639C70.306 30.3426 71.7466 28.3755 73.8618 28.0555C75.7019 27.7771 77.644 27.5132 79.688 27.264C83.272 26.8373 86.8987 26.496 90.568 26.24C94.2374 25.984 97.608 25.856 100.68 25.856ZM113.005 51.328C115.237 51.328 117.037 53.1549 117.004 55.3868L116.994 56.1079C116.962 58.2871 115.191 60.0395 113.012 60.049L87.496 60.16C84.5947 60.2453 82.5467 61.0133 81.3521 62.464C80.2427 63.8293 79.688 65.7493 79.688 68.224V72.064C79.688 75.136 80.4134 77.3973 81.864 78.848C83.4 80.2133 85.7894 80.896 89.032 80.896C91.4214 80.896 94.0667 80.4693 96.968 79.616C99.9547 78.6773 102.941 77.312 105.928 75.52C107.403 74.5931 109.633 72.8702 111.391 71.3609C113.091 69.9019 113.992 70.32 113.992 72.5603V75.2621C113.992 76.0958 113.739 76.9141 113.213 77.5611C112.421 78.5357 111.401 79.6473 110.152 80.896C108.445 82.5173 106.355 84.096 103.88 85.632C101.491 87.168 98.8027 88.448 95.816 89.472C92.9147 90.496 89.7147 91.0079 86.216 91.0079C82.4614 91.0079 79.1334 90.368 76.232 89.088C73.416 87.7226 71.1974 85.76 69.576 83.2C67.9547 80.5546 67.144 77.3546 67.144 73.6V66.816C67.144 61.952 68.68 58.1546 71.752 55.424C74.9094 52.6933 79.2614 51.328 84.808 51.328H113.005Z" fill="#E8E5E5"/>
<path d="M37.776 1.53589C39.9851 1.53589 41.776 3.32675 41.776 5.53589V85.8559C41.776 88.065 39.9851 89.8559 37.776 89.8559H32.976C30.7668 89.8559 28.976 88.065 28.976 85.8559V5.53589C28.976 3.32675 30.7668 1.53589 32.976 1.53589H37.776ZM65.936 1.53589C68.1451 1.53589 69.936 3.32675 69.936 5.53589V8.54389C69.936 10.753 68.1451 12.5439 65.936 12.5439H4.94397C2.73484 12.5439 0.94397 10.753 0.94397 8.54389V5.53589C0.94397 3.32675 2.73483 1.53589 4.94397 1.53589H65.936Z" fill="#E8E5E5"/>
</svg>
