<svg width="64" height="64" viewBox="0 0 64 64" fill="none" xmlns="http://www.w3.org/2000/svg">
<path fill-rule="evenodd" clip-rule="evenodd" d="M0 32C0 49.6731 14.3269 64 32 64C49.6731 64 64 49.6731 64 32C64 14.3269 49.6731 0 32 0C14.3269 0 0 14.3269 0 32ZM26.1333 46.6666L26.6777 38.5097L26.6772 38.5093L41.5158 25.1186C42.167 24.5407 41.3736 24.2588 40.5091 24.7831L22.1963 36.3364L14.2862 33.8675C12.5779 33.3445 12.5657 32.1706 14.6697 31.3267L45.4937 19.4411C46.9015 18.802 48.2603 19.7793 47.7228 21.934L42.4735 46.6708C42.107 48.4286 41.0448 48.849 39.5732 48.037L31.5769 42.1292L27.7332 45.8666C27.7211 45.8784 27.7091 45.8902 27.6971 45.9018C27.2672 46.3204 26.9115 46.6666 26.1333 46.6666Z" fill="#DCD7D8"/>
</svg>
